SILVERTORRENT Clean Verified Torrents Download
 
http://silvertorrent.org/

--------------------------------------------------
 
http://www.shotpix.com/images/64584251633393100348.jpg

Taken 2 2012 REPACK TS XViD UNiQUE [SilverTorrent]

Format                                   : AVI
Format/Info                              : Audio Video Interleave
File size                                : 1.38 GiB
Duration                                 : 1h 26mn
Overall bit rate                         : 2 292 Kbps
Writing application                      : VirtualDubMod 1.5.10.2 (build 2540/release)
Writing library                          : VirtualDubMod build 2540/release

Video
ID                                       : 0
Format                                   : MPEG-4 Visual
Format profile                           : Advanced Simple@L5
Format settings, BVOP                    : 2
Format settings, QPel                    : No
Format settings, GMC                     : No warppoints
Format settings, Matrix                  : Default (H.263)
Muxing mode                              : Packed bitstream
Codec ID                                 : XVID
Codec ID/Hint                            : XviD
Duration                                 : 1h 26mn
Bit rate                                 : 2 154 Kbps
Width                                    : 672 pixels
Height                                   : 280 pixels
Display aspect ratio                     : 2.40:1
Frame rate                               : 25.000 fps
Color space                              : YUV
Chroma subsampling                       : 4:2:0
Bit depth                                : 8 bits
Scan type                                : Progressive
Compression mode                         : Lossy
Bits/(Pixel*Frame)                       : 0.458
Stream size                              : 1.30 GiB (94%)
Writing library                          : XviD 64

Audio
ID                                       : 1
Format                                   : MPEG Audio
Format version                           : Version 1
Format profile                           : Layer 3
Codec ID                                 : 55
Codec ID/Hint                            : MP3
Duration                                 : 1h 26mn
Bit rate mode                            : Constant
Bit rate                                 : 128 Kbps
Channel(s)                               : 2 channels
Sampling rate                            : 48.0 KHz
Compression mode                         : Lossy
Stream size                              : 78.8 MiB (6%)
Alignment                                : Split accross interleaves
Interleave, duration                     : 40 ms (1.00 video frame)
Interleave, preload duration             : 500 ms
Writing library                          : LAME


IMDB: http://www.imdb.com/title/tt1397280

Screen Shots:
 
http://lookpic.com/O/i2/1446/7HHzAWoH.png 
http://lookpic.com/O/i2/1041/1Q6ZjTRp.png 
http://lookpic.com/O/i2/1775/mdtwA9NN.png 
http://lookpic.com/O/i2/1460/XECp87jq.png 
http://www.secureboxes.net/?r=st